<?xml version="1.0" encoding="utf-8"?>
<!-- Generator: Adobe Illustrator 22.0.1, SVG Export Plug-In . SVG Version: 6.00 Build 0)  -->
<svg version="1.1" id="Layer_2_1_" xmlns="http://www.w3.org/2000/svg" xmlns:xlink="http://www.w3.org/1999/xlink" x="0px" y="0px"
	 viewBox="0 0 74.7 28.4" style="enable-background:new 0 0 74.7 28.4;" xml:space="preserve">
<style type="text/css">
	.st0{fill:#77787B;}
	.st1{clip-path:url(#SVGID_2_);}
	.st2{fill:#FCD800;}
</style>
<title>ifg-lockup-yellow-grey_707070_OL</title>
<path class="st0" d="M3.2,26.1v0.7H0.8v-0.7h0.8v-3.8H0.8v-0.6h2.3v0.7H2.4v3.8L3.2,26.1z"/>
<path class="st0" d="M6.4,26.8v-2.1c0-0.5-0.3-0.8-0.7-0.9c0,0-0.1,0-0.1,0c-0.5,0-0.9,0.4-0.9,0.9c0,0,0,0.1,0,0.1v2H3.9v-2.5
	c0-0.4,0-0.5-0.4-0.5v-0.5c0.5-0.1,1.1-0.1,1.1,0.6c0.2-0.4,0.7-0.7,1.2-0.6c0.7,0,1.4,0.5,1.4,1.3c0,0.1,0,0.2,0,0.2v2.1L6.4,26.8z
	"/>
<path class="st0" d="M8.4,23.8H7.7v-0.6h0.7v-0.5c0-1.4,1.1-1.6,2.2-1.2l-0.1,0.6c-0.6-0.3-1.3-0.2-1.3,0.7v0.5h1.2v0.6H9.2v2.9H8.4
	L8.4,23.8z"/>
<path class="st0" d="M12.4,26.8c-1,0-1.8-0.7-1.9-1.7c0-0.1,0-0.1,0-0.2c0-1,0.7-1.8,1.7-1.8c0.1,0,0.1,0,0.2,0
	c1-0.1,1.8,0.6,1.9,1.6c0,0.1,0,0.1,0,0.2c0,1-0.7,1.8-1.7,1.9C12.5,26.8,12.5,26.8,12.4,26.8z M12.4,26.1c0.6,0,1.1-0.5,1.1-1.1
	c0,0,0,0,0-0.1c0-0.6-0.4-1.1-1-1.1c0,0-0.1,0-0.1,0c-0.6,0-1,0.4-1,1c0,0,0,0.1,0,0.1C11.3,25.6,11.8,26.1,12.4,26.1
	C12.4,26.1,12.4,26.1,12.4,26.1z"/>
<path class="st0" d="M16.9,23.1c0.3,0,0.6,0.1,0.8,0.2l-0.2,0.7c-0.2-0.1-0.5-0.2-0.7-0.2c-0.5,0-0.9,0.3-0.9,0.7c0,0,0,0.1,0,0.1v2
	h-0.8v-2.5c0-0.3,0-0.5-0.4-0.5v-0.5c0.5-0.1,1.1,0,1.1,0.5C16,23.3,16.4,23.1,16.9,23.1z"/>
<path class="st0" d="M22.9,26.8v-2.1c0-0.5-0.2-0.9-0.7-0.9c-0.5,0-0.8,0.4-0.8,0.8c0,0,0,0.1,0,0.1v2h-0.8v-2
	c0-0.5-0.2-0.9-0.7-0.9c-0.5,0-0.9,0.4-0.9,0.9c0,0,0,0,0,0.1v2h-0.8v-2.5c0-0.4,0-0.5-0.4-0.5v-0.5c0.5-0.1,1.1-0.1,1.1,0.6
	c0.2-0.4,0.7-0.7,1.2-0.6c0.6,0,0.9,0.2,1.1,0.7c0.3-0.5,0.8-0.7,1.3-0.7c1,0,1.2,0.7,1.2,1.5v2.1H22.9z"/>
<path class="st0" d="M25.6,26.8c-0.8,0-1.3-0.5-1.3-1.1s0.5-1.2,1.4-1.2c0.4,0,0.7,0.1,1,0.2v-0.4c0-0.9-1.6-0.6-2-0.4l-0.1-0.6
	c0.4-0.2,0.9-0.3,1.3-0.3c0.9,0,1.6,0.3,1.6,1.3v1.4c0,0.3,0,0.5,0.4,0.5v0.5c-0.6,0.1-1,0.1-1-0.6C26.6,26.6,26.1,26.9,25.6,26.8z
	 M25.8,25.1c-0.3,0-0.7,0.2-0.7,0.5c0,0,0,0,0,0.1c0,0.3,0.2,0.5,0.7,0.5c0.5,0,1-0.3,1-0.9c0,0,0,0,0,0
	C26.5,25.2,26.1,25.1,25.8,25.1z"/>
<path class="st0" d="M29.6,23.2h1.2v0.6h-1.2v1.6c0,0.6,0.2,0.8,0.6,0.8c0.2,0,0.4,0,0.7-0.1l0.1,0.6c-0.3,0.1-0.6,0.2-0.9,0.2
	c-0.8,0-1.3-0.4-1.3-1.5v-1.6H28v-0.5h0.7l0.1-1.1h0.7L29.6,23.2z"/>
<path class="st0" d="M31.9,21.6c0.2,0,0.5,0.2,0.5,0.4c0,0,0,0,0,0c0,0.3-0.2,0.5-0.5,0.5s-0.5-0.2-0.5-0.5
	C31.3,21.9,31.5,21.6,31.9,21.6C31.8,21.6,31.8,21.6,31.9,21.6z M32.2,26.8h-0.8v-3.5h0.8L32.2,26.8z"/>
<path class="st0" d="M34.8,26.8c-1,0-1.8-0.7-1.9-1.7c0,0,0-0.1,0-0.1c0-1,0.8-1.9,1.9-1.9c1,0,1.9,0.8,1.9,1.9l0,0
	c0,1-0.7,1.8-1.7,1.9C34.9,26.8,34.8,26.8,34.8,26.8z M34.8,26.1c0.6,0,1.1-0.5,1.1-1.1c0,0,0,0,0-0.1c0-0.6-0.6-1-1.1-1
	c-0.6,0-1,0.6-1,1.1C33.7,25.7,34.2,26.1,34.8,26.1z"/>
<path class="st0" d="M40,26.8v-2.1c0-0.4-0.3-0.8-0.7-0.9c0,0-0.1,0-0.1,0c-0.5,0-0.9,0.4-0.9,0.9c0,0,0,0.1,0,0.1v2h-0.8v-2.5
	c0-0.4,0-0.5-0.4-0.5v-0.5c0.5-0.1,1.1-0.1,1.1,0.6c0.3-0.4,0.8-0.7,1.3-0.6c0.7,0,1.4,0.6,1.4,1.3c0,0.1,0,0.1,0,0.2v2.1L40,26.8z"
	/>
<path class="st0" d="M43.6,23.8h-0.7v-0.6h0.7v-0.5c0-1.4,1.1-1.6,2.2-1.2l-0.1,0.6c-0.6-0.3-1.3-0.2-1.3,0.7v0.5h1.2v0.6h-1.2v2.9
	h-0.8L43.6,23.8z"/>
<path class="st0" d="M47.6,26.8c-1,0-1.8-0.7-1.9-1.7c0-0.1,0-0.1,0-0.2c0-1,0.8-1.9,1.9-1.9c1,0,1.9,0.8,1.9,1.9l0,0
	c0,1-0.7,1.8-1.7,1.9C47.7,26.8,47.7,26.8,47.6,26.8z M47.6,26.1c0.6,0,1.1-0.5,1.1-1.1c0,0,0,0,0-0.1c0.1-0.6-0.4-1.1-1-1.2
	c-0.6-0.1-1.1,0.4-1.2,1c0,0.1,0,0.1,0,0.2c0,0.6,0.4,1.1,1,1.1C47.5,26.1,47.6,26.1,47.6,26.1L47.6,26.1z"/>
<path class="st0" d="M52.1,23.1c0.3,0,0.6,0.1,0.8,0.2l-0.2,0.7c-0.2-0.1-0.5-0.2-0.7-0.2c-0.4,0-0.8,0.3-0.9,0.7c0,0,0,0.1,0,0.1v2
	h-0.8v-2.5c0-0.3,0-0.5-0.4-0.5v-0.5c0.5-0.1,1.1,0,1.1,0.5C51.2,23.3,51.6,23.1,52.1,23.1z"/>
<path class="st0" d="M57.2,21.5c1.1-0.1,2,0.6,2.3,1.6h-0.8c-0.3-0.6-0.9-0.9-1.5-0.8c-1,0.1-1.8,1-1.7,2c0.1,0.9,0.8,1.7,1.7,1.7
	c0.8,0.1,1.5-0.4,1.7-1.3c0,0,0-0.1,0-0.1h-1.6V24h2.4c0,0.5,0,1-0.2,1.4c-0.4,0.9-1.3,1.5-2.3,1.5c-1.5-0.1-2.6-1.3-2.5-2.8
	C54.8,22.7,55.9,21.6,57.2,21.5L57.2,21.5z"/>
<path class="st0" d="M62,26.8c-1,0-1.8-0.7-1.9-1.7c0-0.1,0-0.1,0-0.2c0.1-1,1-1.8,2-1.7c0.9,0.1,1.7,0.8,1.7,1.7
	c0,1-0.7,1.8-1.7,1.9C62.1,26.8,62.1,26.8,62,26.8z M62,26.1c0.6,0,1.1-0.5,1.1-1.1c0,0,0,0,0-0.1c0-0.6-0.4-1.1-1-1.1
	c0,0-0.1,0-0.1,0c-0.6,0-1,0.4-1,1c0,0,0,0.1,0,0.1C60.9,25.6,61.4,26.1,62,26.1C62,26.1,62,26.1,62,26.1L62,26.1z"/>
<path class="st0" d="M66.2,26.8c-1,0-1.8-0.7-1.9-1.7c0-0.1,0-0.1,0-0.2c0.1-1,1-1.8,2-1.7c0.9,0.1,1.7,0.8,1.7,1.7
	c0,1-0.7,1.8-1.7,1.9C66.3,26.8,66.3,26.8,66.2,26.8z M66.2,26.1c0.6,0,1-0.5,1-1.1c0,0,0,0,0,0c0-0.6-0.5-1.1-1.1-1.1
	c-0.6,0-1.1,0.5-1.1,1.1c0,0,0,0,0,0c0,0.6,0.4,1.1,1,1.2C66.1,26.1,66.2,26.1,66.2,26.1L66.2,26.1z"/>
<path class="st0" d="M71.4,26.1c-0.2,0.5-0.7,0.8-1.2,0.7c-0.9,0-1.7-0.8-1.6-1.7c0-0.1,0-0.1,0-0.2c-0.1-0.9,0.6-1.7,1.6-1.8
	c0,0,0.1,0,0.1,0c0.4,0,0.7,0.1,1,0.3v-2.1H72v4.3c0,0.4,0,0.5,0.4,0.5v0.6C71.8,26.8,71.4,26.8,71.4,26.1L71.4,26.1z M71.2,24.1
	c-0.3-0.2-0.6-0.3-0.9-0.3c-0.6,0-1,0.4-1,1c0,0,0,0.1,0,0.1c0,0.6,0.3,1.1,1,1.1c0.5,0,0.9-0.4,0.9-0.9c0,0,0,0,0-0.1L71.2,24.1z"
	/>
<path class="st0" d="M72.8,26.6c0,0.1,0.1,0.1,0.2,0.1s0.2,0,0.2-0.1S73,26.5,73,26.5s-0.2,0-0.2-0.2s0.1-0.2,0.2-0.2s0.2,0,0.2,0.2
	h-0.1c0-0.1-0.1-0.1-0.1-0.1s-0.1,0-0.1,0.1s0.1,0.1,0.2,0.1s0.2,0,0.2,0.2s-0.1,0.2-0.3,0.2c-0.1,0-0.2-0.1-0.3-0.2H72.8z"/>
<path class="st0" d="M73.9,26.2L73.9,26.2v0.6h-0.1v-0.4l-0.2,0.2l0,0l-0.1-0.2v0.4h-0.1v-0.6l0,0l0.3,0.3L73.9,26.2z"/>
<g>
	<defs>
		<rect id="SVGID_1_" x="23.6" y="-2.7" width="32.8" height="23.4"/>
	</defs>
	<clipPath id="SVGID_2_">
		<use xlink:href="#SVGID_1_"  style="overflow:visible;"/>
	</clipPath>
	<g class="st1">
		<path class="st2" d="M39.9,1.4c-4.8,0-9.3,2.6-11.7,6.8c-0.9,1.2-1,2.8-0.3,4.2c0.8,1.3,2.5,1.5,3.5,1.5h1.7l-0.6,2
			c-0.4,1.1-0.3,2.3,0.4,3.3c0.6,0.8,1.7,1.3,2.7,1.3c0.8,0,1.7-0.2,2.4-0.5c-0.2-0.3-0.4-0.6-0.5-1c-0.1-0.3-0.2-0.7-0.2-1
			c-0.5,0.2-1,0.3-1.6,0.3c-0.4,0-0.7-0.2-1-0.4c-0.2-0.4-0.3-0.9-0.1-1.3l0.9-2.6h2.7l0.7-2.2h-2.7l1.2-3.6h-2.3l-1.2,3.5h-2.4
			c-0.8,0-1.3-0.2-1.5-0.6s0-1.4,0.6-2.5l0,0C34,3.4,41,2,46.2,5.5s6.6,10.5,3.1,15.7s-10.5,6.6-15.7,3.1c-2.5-1.7-4.2-4.3-4.8-7.3
			l-2.2,0.4c1.4,7.3,8.5,12.1,15.8,10.7c7.3-1.4,12.1-8.5,10.7-15.8C51.9,6,46.4,1.4,39.9,1.4z"/>
		<path class="st2" d="M48.5,18.6c-0.6,0-1.2-0.1-1.7-0.4c-0.2-0.2-0.4-0.4-0.5-0.7l0,0c0-0.2,0-0.4,0.1-0.6l1.7-5.2h-2.3l-1.4,4.5
			l0,0c-0.4,1.2-1.5,2-2.7,2.1c-0.3,0-0.6-0.1-0.8-0.4c-0.2-0.3-0.2-0.7-0.1-1l1.7-5.2h-2.3l-1.4,4.5c-0.4,1-0.2,2.2,0.3,3.1
			c0.6,0.8,1.6,1.3,2.6,1.2c1.2,0,2.3-0.5,3.2-1.2c0.3,0.5,0.7,0.8,1.2,1c0.6,0.2,1.2,0.3,1.8,0.2c0.2,0,0.4,0,0.7-0.1l0.1-0.2
			l0.2-0.4c0.1-0.1,0.2-0.3,0.2-0.4l0.2-0.5l0.1-0.3C49.2,18.5,48.9,18.6,48.5,18.6z"/>
	</g>
</g>
</svg>
