<svg id="White" xmlns="http://www.w3.org/2000/svg" viewBox="0 0 400 400"><defs><style>.cls-1{fill:#1da1f2;}</style></defs><title>twitter</title><path class="cls-1" d="M400,200A200,200,0,1,1,200,0,199.94,199.94,0,0,1,400,200ZM163.4,305.5c88.7,0,137.2-73.5,137.2-137.2,0-2.1,0-4.2-.1-6.2a98.79,98.79,0,0,0,24.1-25,97.87,97.87,0,0,1-27.7,7.6A48.19,48.19,0,0,0,318.1,118a97.65,97.65,0,0,1-30.6,11.7,48.25,48.25,0,0,0-83.4,33,44.19,44.19,0,0,0,1.3,11A136.79,136.79,0,0,1,106,123.3a48.2,48.2,0,0,0,15,64.3,47.37,47.37,0,0,1-21.8-6v.6a48.27,48.27,0,0,0,38.7,47.3,48.07,48.07,0,0,1-12.7,1.7,46,46,0,0,1-9.1-.9,48.15,48.15,0,0,0,45,33.5,96.93,96.93,0,0,1-59.9,20.6,87.68,87.68,0,0,1-11.5-.7,134.35,134.35,0,0,0,73.7,21.8"/></svg>