<svg width="67" height="67" viewBox="0 0 67 67" fill="none" xmlns="http://www.w3.org/2000/svg">
<path d="M19.6889 7.30265C24.4223 4.46507 29.8421 2.97719 35.3608 3.00026C40.8795 3.02334 46.2867 4.5565 50.9962 7.43356L50.1435 8.82933C45.6888 6.10791 40.5741 4.6577 35.354 4.63587C30.1338 4.61404 25.0072 6.02143 20.5298 8.70551L19.6889 7.30265Z" fill="#EAEAEA"/>
<path d="M30.9254 63.1601C25.4629 62.3736 20.3199 60.1069 16.0539 56.6058C11.7878 53.1048 8.56136 48.5028 6.72428 43.2988L8.26661 42.7543C10.0043 47.6768 13.0562 52.0298 17.0915 55.3415C21.1268 58.6532 25.9915 60.7972 31.1585 61.5412L30.9254 63.1601Z" fill="#EAEAEA"/>
<path d="M64.8637 39.2529C63.7651 44.6612 61.2071 49.6657 57.4671 53.724C53.7271 57.7822 48.9476 60.7393 43.6467 62.2749L43.1917 60.7038C48.2057 59.2514 52.7267 56.4542 56.2644 52.6155C59.8021 48.7768 62.2216 44.0431 63.2608 38.9273L64.8637 39.2529Z" fill="#EAEAEA"/>
<path d="M26.1451 54.6485C25.3797 53.401 17.9195 44.5568 13.9785 39.9328V38.6681L16.5295 35.9278L17.9872 35.0849L19.6271 37.72L21.6315 39.0899L23.0893 41.8302L25.2758 43.2003L26.7336 45.9405L29.2846 48.1538L30.3779 50.7887C28.9515 51.9095 26.3612 54.0567 26.1451 54.6485C26.2114 54.7565 26.2275 54.8075 26.1869 54.7941C26.1288 54.7749 26.1174 54.7245 26.1451 54.6485Z" fill="#CBE3E6"/>
<path d="M26.7336 23.175L26.1869 24.7559L27.2802 26.9694L29.8313 28.3395L39.6709 27.4964L49.875 39.9328L52.4261 40.8815L58.4392 32.4499L47.7795 20.8565L44.6819 22.2266L37.3932 19.5917L26.7336 23.175Z" fill="#CBE3E6"/>
<path d="M20.7119 13.2772L7.70703 28.7988L12.5235 34.6095L25.1845 19.4856L20.7119 13.2772Z" fill="white"/>
<path d="M59.7269 34.3707L46.5843 18.6896L51.0569 13.9136L63.9243 28.8783L59.7269 34.3707Z" fill="white"/>
<path fill-rule="evenodd" clip-rule="evenodd" d="M31.4964 9.3703C31.1924 9.73251 32.0026 12.6739 32.4033 12.6631C33.3884 12.6353 33.7741 11.7391 33.3604 10.4415C32.9531 9.16553 32.0863 8.66749 31.4964 9.3703ZM36.3282 10.4415C35.9144 11.7391 36.3001 12.6353 37.2852 12.6631C37.686 12.6739 38.4961 9.73251 38.1921 9.3703C37.6022 8.66749 36.7354 9.16553 36.3282 10.4415ZM13.1312 20.5309L6.11719 28.8983L8.93341 32.2235C11.5311 35.2905 11.8209 35.4958 12.6661 34.8671C13.4283 34.2996 13.6442 34.3011 13.95 34.8758C14.5205 35.948 14.4035 36.6143 13.4667 37.6243C11.6995 39.5295 12.2579 40.7252 18.3227 48.0219C21.4684 51.8071 24.4967 55.0392 25.0516 55.2054C25.7042 55.4004 26.4751 55.1416 27.2347 54.4727L28.409 53.4381L30.2064 55.4354C32.364 57.833 33.9615 58.0346 35.8453 56.1464C36.6542 55.335 37.6635 54.8596 38.5773 54.8581C39.3746 54.8571 40.6628 54.394 41.4406 53.8291C42.2184 53.2642 43.2484 52.8021 43.7295 52.8021C45.067 52.8021 47.0584 51.3929 47.3693 50.2265C47.5222 49.6529 48.3721 48.7427 49.2583 48.204C51.0255 47.1303 51.9031 45.3804 51.9031 42.9314C51.9031 41.8123 52.3833 40.7134 53.5226 39.2254C54.4135 38.0616 55.4638 36.531 55.8568 35.8235C56.436 34.7806 56.6783 34.6602 57.136 35.1866C57.5951 35.7144 58.2503 35.1866 60.6355 32.3666L63.5705 28.8973L56.5569 20.5304L49.5434 12.1635L46.6356 15.6015C44.3497 18.3031 43.831 19.1886 44.2124 19.7355C44.5427 20.2099 44.5566 20.5999 44.256 20.958C43.9554 21.3161 42.6844 20.9646 40.2698 19.8554C36.2707 18.0181 36.1118 18.032 29.5163 20.8129C26.3904 22.1305 25.9689 22.1995 25.3747 21.4915C24.7947 20.801 24.7908 20.6009 25.3414 19.8765C25.9024 19.1376 25.658 18.6813 23.0573 15.6061L20.1452 12.1635L13.1312 20.5309ZM27.4856 12.7033C27.3297 13.0042 27.5418 13.6978 27.9577 14.2447C28.5407 15.0129 28.8486 15.106 29.3064 14.6532C29.8048 14.1603 29.7836 13.9139 29.1738 13.1118C28.3489 12.0251 27.8942 11.9156 27.4856 12.7033ZM40.5147 13.1118C39.9049 13.9139 39.8837 14.1603 40.3821 14.6532C40.8399 15.106 41.1478 15.0129 41.7308 14.2447C42.1467 13.6978 42.3588 13.0042 42.2029 12.7033C41.7943 11.9156 41.3396 12.0251 40.5147 13.1118ZM21.9046 17.1728L23.3881 19.1021L17.6835 25.9121L11.9794 32.7221L10.3404 30.8153L8.70149 28.9091L14.4251 22.076C17.5729 18.318 20.2099 15.2434 20.2847 15.2434C20.3594 15.2434 21.0884 16.1118 21.9046 17.1728ZM60.9723 28.8947C60.9723 28.9122 60.2382 29.7802 59.3407 30.8241L57.7091 32.7221L51.9528 25.8499L46.1959 18.9776L47.7861 17.0271L49.3758 15.0767L55.1741 21.97C58.363 25.7614 60.9723 28.8777 60.9723 28.8947ZM18.5045 19.3995C17.8921 20.2515 17.842 20.6215 18.2575 21.2178C18.7066 21.8625 18.9191 21.8095 19.7884 20.8365C20.5585 19.9747 20.6841 19.5436 20.3183 19.0183C19.6718 18.0906 19.4049 18.1467 18.5045 19.3995ZM49.3702 19.0183C49.0044 19.5436 49.1301 19.9747 49.9001 20.8365C50.7694 21.8095 50.9819 21.8625 51.4311 21.2178C51.8465 20.6215 51.7964 20.2515 51.184 19.3995C50.2836 18.1467 50.0167 18.0906 49.3702 19.0183ZM40.1778 21.934C43.4449 23.355 43.8306 23.4199 44.937 22.7381C46.1398 21.9973 46.1476 22.0034 50.801 27.5647L55.4608 33.1332L53.6142 36.0468C52.5984 37.6495 51.3931 39.1997 50.9357 39.4914C49.8798 40.1644 49.574 39.8732 43.4009 32.3244L38.5691 26.4163L35.8432 26.7497C34.3437 26.9329 32.0479 27.22 30.7415 27.3877C28.7216 27.647 28.1887 27.5256 27.1786 26.5758C26.5252 25.9615 25.9909 25.2813 25.9909 25.0642C25.9909 24.8471 26.5252 24.3665 27.1786 23.9966C28.5053 23.2444 35.4532 20.4836 36.1653 20.4254C36.4167 20.4054 38.2223 21.084 40.1778 21.934ZM24.1192 23.0895C24.3054 23.4435 24.4034 24.1288 24.3365 24.613C24.133 26.085 25.0633 27.5318 26.9497 28.6781C28.8132 29.811 29.4649 29.809 35.2761 28.6549L37.4355 28.2264L43.3141 35.112C46.547 38.8992 49.4138 41.9976 49.6841 41.9976C50.43 41.9976 50.2715 44.62 49.4609 45.6871C49.0679 46.2047 48.4404 46.6281 48.0668 46.6281C47.6932 46.6281 45.888 44.8525 44.0556 42.6819C41.1435 39.2326 40.6361 38.8226 40.0263 39.4256C39.4057 40.0394 39.7209 40.5853 42.8908 44.3807C46.4024 48.5863 46.4412 48.6614 45.6561 49.6956C44.3169 51.4583 43.2601 50.969 39.9533 47.0557C37.2334 43.8369 36.7475 43.4546 36.1399 44.0556C35.5197 44.6684 35.7533 45.1155 38.2806 48.149C41.3357 51.8169 41.432 52.8021 38.7345 52.8021C37.7227 52.8021 36.9375 52.2419 35.4921 50.4869C34.4431 49.2135 33.3452 48.1716 33.0524 48.1716C31.7871 48.1716 32.0656 49.4532 33.784 51.5396C35.3504 53.4406 35.5473 53.9037 35.077 54.5787C34.2461 55.7719 32.8568 55.5079 31.2269 53.8471C30.0505 52.6488 29.8212 52.1112 30.041 51.0678C30.4094 49.319 29.5638 47.2913 28.1572 46.5494C27.5211 46.2139 26.7705 45.3197 26.4889 44.5619C26.2073 43.804 25.4917 42.9206 24.8979 42.5985C24.3045 42.2764 23.5975 41.4342 23.3272 40.7273C23.0568 40.0198 22.3153 39.1673 21.6792 38.8318C21.043 38.4964 20.2924 37.6022 20.0108 36.8443C19.4421 35.3131 17.6382 34.103 16.5421 34.5177C16.1098 34.6808 15.6041 34.3562 15.2555 33.6909C14.72 32.6696 14.9688 32.2508 18.9243 27.521C21.2581 24.7298 23.3056 22.4464 23.474 22.4464C23.6429 22.4464 23.9331 22.7361 24.1192 23.0895ZM18.118 36.9812C18.3589 37.3351 18.6258 38.0626 18.7105 38.5982C18.7956 39.1338 19.205 39.7703 19.6209 40.0131C20.0363 40.2555 20.7165 40.6537 21.1324 40.8976C21.5479 41.1419 21.889 41.7542 21.8903 42.2584C21.8916 42.7626 22.1832 43.3368 22.5381 43.5344C24.5101 44.6313 24.913 45.0326 25.1272 46.1136C25.3595 47.2856 25.9015 47.8248 27.4044 48.38C28.7424 48.8739 28.7705 50.1962 27.4779 51.804C26.8085 52.636 26.0574 53.3166 25.8083 53.3166C25.2404 53.3166 14.3305 40.3908 14.3305 39.7178C14.3305 38.9985 16.5619 36.338 17.1657 36.338C17.4481 36.338 17.877 36.6277 18.118 36.9812Z" fill="#2F7180"/>
</svg>
