<svg width="64" height="64" viewBox="0 0 64 64" fill="none" xmlns="http://www.w3.org/2000/svg">
<circle cx="31.7196" cy="28.7196" r="24.7196" fill="#EAEAEA"/>
<path opacity="0.8" d="M30.9763 32.4482C32.7821 32.4482 34.3016 31.6554 35.5348 30.0699C36.768 28.4402 37.3846 26.3702 37.3846 23.8597C37.3846 21.3493 36.7901 19.3012 35.6009 17.7157C34.4117 16.0861 32.7601 15.2713 30.646 15.2713C28.5319 15.2713 26.9464 15.6236 25.8893 16.3283C25.6251 17.2532 25.4929 18.4864 25.4929 20.028L25.6251 22.4063L21.1326 22.7366L20.3398 12.959C24.1276 11.2413 27.6731 10.3824 30.9763 10.3824C35.733 10.3824 39.4547 11.5716 42.1413 13.95C44.872 16.3283 46.2374 19.6095 46.2374 23.7937C46.2374 27.9337 44.9601 31.1709 42.4056 33.5052C39.8951 35.8395 36.5478 37.0728 32.3637 37.2049L32.5619 42.4901L31.4388 43.5471C29.8532 43.371 27.651 43.2829 24.8323 43.2829L24.6341 43.0847V34.4962L26.6821 32.25C27.7832 32.3821 29.2146 32.4482 30.9763 32.4482ZM24.7001 50.3518C25.581 49.3829 26.7922 48.8984 28.3337 48.8984C29.8752 48.8984 31.0644 49.3829 31.9012 50.3518C32.7821 51.2768 33.2225 52.554 33.2225 54.1836C33.2225 55.7692 32.7821 57.0464 31.9012 58.0154C31.0644 58.9403 29.8752 59.4028 28.3337 59.4028C26.7922 59.4028 25.581 58.9403 24.7001 58.0154C23.8633 57.0464 23.4449 55.7692 23.4449 54.1836C23.4449 52.5981 23.8633 51.3208 24.7001 50.3518Z" fill="#005365"/>
<ellipse cx="28.4254" cy="54.1851" rx="5.1188" ry="5.44827" fill="#2F7180"/>
</svg>
