<svg width="67" height="67" viewBox="0 0 67 67" fill="none" xmlns="http://www.w3.org/2000/svg">
<g clip-path="url(#clip0)">
<path fill-rule="evenodd" clip-rule="evenodd" d="M38.2529 13.6786H14.8245V38.6804C7.3697 36.1738 2 29.1285 2 20.829C2 10.43 10.43 2 20.829 2C28.6968 2 35.4376 6.82565 38.2529 13.6786Z" fill="#EAEAEA"/>
<path d="M52.6335 37.5917V22.9949C52.6336 22.8105 52.5974 22.628 52.5269 22.4577C52.4563 22.2874 52.3529 22.1327 52.2225 22.0024L44.8715 14.6515C44.609 14.3886 44.2529 14.2408 43.8814 14.2405H16.6726C16.301 14.2405 15.9446 14.3881 15.6818 14.6508C15.4191 14.9136 15.2715 15.27 15.2715 15.6416V59.5419C15.2715 59.9135 15.4191 60.2698 15.6818 60.5326C15.9446 60.7953 16.301 60.9429 16.6726 60.9429H31.6174" stroke="#2E707F" stroke-width="3.5" stroke-linecap="round" stroke-linejoin="round"/>
<path d="M24.6113 42.2616H31.6167M24.6113 32.9211H43.2923H24.6113ZM24.6113 23.5806H33.9518H24.6113Z" stroke="#2E707F" stroke-width="3.5" stroke-linecap="round" stroke-linejoin="round"/>
<path d="M43.293 22.1779V15.0652C43.2933 14.9019 43.3419 14.7423 43.4327 14.6067C43.5236 14.471 43.6526 14.3653 43.8035 14.3028C43.9543 14.2404 44.1203 14.224 44.2805 14.2558C44.4406 14.2876 44.5878 14.3661 44.7034 14.4814L52.3906 22.1686C52.5071 22.2838 52.5866 22.431 52.619 22.5915C52.6514 22.7521 52.6353 22.9186 52.5727 23.07C52.51 23.2213 52.4037 23.3505 52.2673 23.4412C52.1309 23.5319 51.9706 23.5798 51.8068 23.579H44.694C44.3225 23.579 43.9661 23.4314 43.7033 23.1686C43.4406 22.9059 43.293 22.5495 43.293 22.1779V22.1779Z" fill="#2E707F" stroke="#2E707F" stroke-width="3.5" stroke-linecap="round" stroke-linejoin="round"/>
<g clip-path="url(#clip1)">
<path d="M51 42.0388C59.5565 42.0388 66.5 48.9759 66.5 57.5388V59.4177C66.5 60.4552 65.659 61.2965 64.6212 61.2965H37.3788C36.341 61.2965 35.5 60.4552 35.5 59.4177V57.5388C35.5 48.9764 42.443 42.0388 51 42.0388Z" fill="#005365" fill-opacity="0.8"/>
<path d="M57.9985 46.1658C61.8821 48.7654 64.5 53.619 64.5 59.1658H51.5L57.9985 46.1658Z" fill="white"/>
<path d="M51 44.1658C57.9004 44.1658 63.5 49.5692 63.5 56.2389V57.7023C63.5 58.5105 62.8217 59.1658 61.9848 59.1658H40.0152C39.1783 59.1658 38.5 58.5105 38.5 57.7023V56.2389C38.5 49.5695 44.0992 44.1658 51 44.1658Z" fill="white"/>
<path d="M64.6212 61.2967H37.3788C36.341 61.2967 35.5 60.4554 35.5 59.4178V57.539C35.5 51.8017 38.6177 46.794 43.2491 44.1141L43.2588 44.1307C43.763 45.0041 43.5305 46.1093 42.7299 46.7229C39.4791 49.2145 37.3788 53.1359 37.3788 57.539V58.0087C37.3788 58.7868 38.0096 59.4178 38.788 59.4178H66.5C66.5 60.4554 65.6587 61.2967 64.6212 61.2967Z" fill="#2F7180"/>
<path d="M51 57.5403L44.8954 46.9668Z" fill="#FFB545"/>
<path d="M44 46.1658L51 59.166L37.7002 59.1658C37.7002 53.1923 39.8177 48.9654 44 46.1658Z" fill="#85ACB5"/>
<path d="M59 46.1662L51 59.1653L44 46.1662C46.2078 44.8868 48.7698 44.1536 51.5 44.1536C54.2302 44.1536 56.7922 44.8868 59 46.1662Z" fill="#337584" fill-opacity="0.3"/>
<path d="M50.9381 55.6627C51.304 55.6506 51.6472 55.7438 51.9404 55.9134L58.6671 52.0298C59.1162 51.7704 59.6907 51.9244 59.9501 52.3737C60.2096 52.8229 60.0556 53.3974 59.6062 53.6568L52.8801 57.5403C52.8801 58.5779 52.0388 59.4192 51.0013 59.4192C49.9244 59.4192 49.0593 58.5133 49.1262 57.4221C49.1846 56.4642 49.9791 55.6941 50.9381 55.6627V55.6627Z" fill="#1C1C1C"/>
</g>
</g>
<defs>
<clipPath id="clip0">
<rect width="67" height="67" fill="white"/>
</clipPath>
<clipPath id="clip1">
<rect width="31" height="31" fill="white" transform="matrix(-1 0 0 1 66.5 36.1658)"/>
</clipPath>
</defs>
</svg>
